<svg width="256" height="256" viewBox="0 0 256 256" fill="none" xmlns="http://www.w3.org/2000/svg">
<path d="M22.8354 235.87L22.0359 236.714L22.899 237.531L23.6977 236.651L22.8354 235.87ZM217.401 9.35222L217.979 10.3612L219.961 9.22499L217.877 8.29037L217.401 9.35222ZM33.9963 244.314L33.4384 243.293L31.6102 244.292L33.4198 245.325L33.9963 244.314ZM229.71 17.073L230.452 16.1765L229.594 15.467L228.848 16.291L229.71 17.073ZM128 2.32729C130.809 2.32729 133.543 2.32729 136.207 2.32928C144.885 2.33578 152.807 2.36344 160.067 2.48122C168.406 2.61649 175.871 2.87062 182.608 3.34805C189.58 3.84171 195.745 4.57297 201.268 5.65129C204.301 6.24363 207.14 6.94069 209.811 7.76063C212.323 8.53149 214.687 9.41095 216.924 10.4141L217.877 8.29037C208.558 4.11436 197.277 2.05424 182.773 1.02663C168.269 3.52298e-06 150.439 9.39025e-09 128 9.39025e-09V2.32729ZM29.1322 16.2998C33.7882 12.7465 38.9941 10.0916 45.0825 8.11022C47.1529 7.43642 49.3253 6.8405 51.6129 6.3136C55.7104 5.36981 60.1774 4.64748 65.0888 4.09575C73.8575 3.11104 83.9989 2.67463 95.9326 2.48122C105.419 2.32748 116.038 2.32729 128 2.32729V9.39025e-09C101.043 9.39025e-09 80.728 -0.00195933 64.8284 1.78412C48.9054 3.57216 37.267 7.16488 27.72 14.4501L29.1322 16.2998ZM16.2998 29.1322C19.9855 24.3015 24.3015 19.9855 29.1322 16.2998L27.72 14.4501C22.7248 18.2621 18.2621 22.7248 14.4501 27.72L16.2998 29.1322ZM2.32729 128C2.32729 100.99 2.32827 80.8278 4.09575 65.0888C5.86129 49.3722 9.37375 38.2075 16.2998 29.1322L14.4501 27.72C7.16488 37.267 3.57216 48.9054 1.78412 64.8284C-0.00195933 80.728 9.3903e-09 101.043 9.3903e-09 128H2.32729ZM16.2998 226.868C9.37375 217.792 5.86129 206.628 4.09575 190.911C2.32827 175.172 2.32729 155.01 2.32729 128H9.3903e-09C9.3903e-09 154.957 -0.00195933 175.271 1.78412 191.172C3.57216 207.094 7.16488 218.733 14.4501 228.28L16.2998 226.868ZM23.635 235.024C21.5632 233.064 19.6152 230.974 17.803 228.766C17.291 228.143 16.7899 227.51 16.2998 226.868L14.4501 228.28C16.75 231.293 19.2877 234.114 22.0359 236.714L23.635 235.024ZM128 253.673C115.784 253.673 104.969 253.672 95.328 253.509C85.6874 253.345 77.2219 253.017 69.7062 252.362C54.6825 251.053 43.5814 248.444 34.5727 243.304L33.4198 245.325C42.8533 250.707 54.3429 253.359 69.5045 254.68C84.6593 256.001 103.608 256 128 256V253.673ZM226.868 239.7C217.792 246.625 206.628 250.139 190.911 251.903C182.55 252.842 172.941 253.283 161.72 253.49C151.819 253.672 140.662 253.673 128 253.673V256C154.957 256 175.271 256.001 191.172 254.216C207.094 252.428 218.733 248.835 228.28 241.55L226.868 239.7ZM239.7 226.868C238.778 228.075 237.818 229.251 236.819 230.392C233.824 233.817 230.491 236.935 226.868 239.7L228.28 241.55C233.275 237.738 237.738 233.275 241.55 228.28L239.7 226.868ZM253.673 128C253.673 155.01 253.671 175.172 251.903 190.911C250.139 206.628 246.625 217.792 239.7 226.868L241.55 228.28C248.835 218.733 252.428 207.094 254.216 191.172C256.001 175.271 256 154.957 256 128H253.673ZM239.7 29.1322C246.625 38.2075 250.139 49.3722 251.903 65.0888C253.671 80.8278 253.673 100.99 253.673 128H256C256 101.043 256.001 80.728 254.216 64.8284C252.428 48.9054 248.835 37.267 241.55 27.72L239.7 29.1322ZM228.968 17.9695C232.302 20.7278 235.366 23.7973 238.118 27.137C238.657 27.7918 239.185 28.457 239.7 29.1322L241.55 27.72C238.299 23.4608 234.575 19.5882 230.452 16.1765L228.968 17.9695Z" fill="black"/>
<path d="M233.165 235.87L233.964 236.714L233.101 237.531L232.302 236.651L233.165 235.87ZM38.599 9.35222L38.0206 10.3612L36.0388 9.22499L38.1233 8.29037L38.599 9.35222ZM222.004 244.314L222.562 243.293L224.39 244.292L222.58 245.325L222.004 244.314ZM26.2902 17.073L25.5483 16.1765L26.4056 15.467L27.1524 16.291L26.2902 17.073ZM128 2.32729C116.04 2.32729 105.421 2.32729 95.9326 2.48122C87.5944 2.61649 80.1286 2.87062 73.3919 3.34805C65.078 3.93677 57.9097 4.86339 51.6129 6.3136C49.3253 6.8405 47.1529 7.43642 45.0825 8.11022C42.9797 8.79462 40.982 9.55949 39.0756 10.4141L38.1233 8.29037C47.4423 4.11436 58.7235 2.05424 73.2274 1.02663C87.7314 3.52298e-06 105.561 9.39025e-09 128 9.39025e-09V2.32729ZM226.868 16.2998C221.932 12.5332 216.379 9.77615 209.811 7.76063C207.14 6.94069 204.301 6.24363 201.268 5.65129C198.045 5.02196 194.604 4.51058 190.911 4.09575C182.143 3.11104 172.001 2.67463 160.067 2.48122C152.807 2.36344 144.885 2.33578 136.207 2.32928C133.543 2.32729 130.809 2.32729 128 2.32729V9.39025e-09C154.957 9.39025e-09 175.272 -0.00195933 191.172 1.78412C207.095 3.57216 218.733 7.16488 228.28 14.4501L226.868 16.2998ZM239.7 29.1322C239.185 28.457 238.657 27.7918 238.118 27.137C234.798 23.1073 231.023 19.4703 226.868 16.2998L228.28 14.4501C233.275 18.2621 237.738 22.7248 241.55 27.72L239.7 29.1322ZM253.673 128C253.673 100.99 253.671 80.8278 251.903 65.0888C250.139 49.3722 246.625 38.2075 239.7 29.1322L241.55 27.72C248.835 37.267 252.428 48.9054 254.216 64.8284C256.001 80.728 256 101.043 256 128H253.673ZM239.7 226.868C246.625 217.792 250.139 206.628 251.903 190.911C253.671 175.172 253.673 155.01 253.673 128H256C256 154.957 256.001 175.271 254.216 191.172C252.428 207.094 248.835 218.733 241.55 228.28L239.7 226.868ZM232.365 235.024C233.921 233.551 235.408 232.006 236.819 230.392C237.818 229.251 238.778 228.075 239.7 226.868L241.55 228.28C239.25 231.293 236.712 234.114 233.964 236.714L232.365 235.024ZM128 253.673C140.662 253.673 151.819 253.672 161.72 253.49C170.928 253.32 179.052 252.993 186.294 252.362C201.317 251.053 212.419 248.444 221.427 243.304L222.58 245.325C213.147 250.707 201.657 253.359 186.495 254.68C171.341 256.001 152.392 256 128 256V253.673ZM29.1322 239.7C38.2075 246.625 49.3722 250.139 65.0888 251.903C73.709 252.871 83.6559 253.31 95.328 253.509C104.969 253.672 115.784 253.673 128 253.673V256C101.043 256 80.729 256.001 64.8285 254.216C48.9064 252.428 37.267 248.835 27.72 241.55L29.1322 239.7ZM16.2998 226.868C16.7899 227.51 17.291 228.143 17.803 228.766C21.1428 232.834 24.9436 236.503 29.1322 239.7L27.72 241.55C22.7249 237.738 18.2621 233.275 14.4501 228.28L16.2998 226.868ZM2.32729 128C2.32729 155.01 2.32827 175.172 4.09575 190.911C5.86129 206.628 9.37375 217.792 16.2998 226.868L14.4501 228.28C7.16488 218.733 3.57216 207.094 1.78412 191.172C-0.00195933 175.271 9.3903e-09 154.957 9.3903e-09 128H2.32729ZM16.2998 29.1322C9.37375 38.2075 5.86129 49.3722 4.09575 65.0888C2.32827 80.8278 2.32729 100.99 2.32729 128H9.3903e-09C9.3903e-09 101.043 -0.00195933 80.728 1.78412 64.8284C3.57216 48.9054 7.16488 37.267 14.4501 27.72L16.2998 29.1322ZM27.032 17.9695C23.0439 21.2686 19.4433 25.013 16.2998 29.1322L14.4501 27.72C17.7013 23.4608 21.4252 19.5882 25.5483 16.1765L27.032 17.9695Z" fill="black"/>
<path d="M136.207 2.32928C133.543 2.32729 130.809 2.32729 128 2.32729C116.038 2.32729 105.419 2.32748 95.9326 2.48122C87.5944 2.61649 80.1286 2.87062 73.3919 3.34805C65.078 3.93677 57.9097 4.86339 51.6129 6.3136C49.3253 6.8405 47.1529 7.43642 45.0825 8.11022C42.9797 8.79462 40.982 9.55949 39.0756 10.4141C35.4634 12.0332 32.1799 13.9739 29.1322 16.2998C28.4207 16.8427 27.7208 17.3997 27.032 17.9695C23.0439 21.2686 19.4433 25.013 16.2998 29.1322C9.37375 38.2075 5.86129 49.3722 4.09575 65.0888C2.32827 80.8278 2.32729 100.99 2.32729 128C2.32729 155.01 2.32827 175.172 4.09575 190.911C5.86129 206.628 9.37375 217.792 16.2998 226.868C16.7899 227.51 17.291 228.143 17.803 228.766C19.6152 230.974 21.5632 233.064 23.635 235.024C25.3816 236.677 27.2163 238.238 29.1322 239.7C38.2075 246.625 49.3722 250.139 65.0888 251.903C73.709 252.871 83.6559 253.31 95.328 253.509C104.969 253.672 115.784 253.673 128 253.673C140.662 253.673 151.819 253.672 161.72 253.49C172.941 253.283 182.55 252.842 190.911 251.903C206.628 250.139 217.792 246.625 226.868 239.7C228.784 238.238 230.618 236.677 232.365 235.024C233.921 233.551 235.408 232.006 236.819 230.392C237.818 229.251 238.778 228.075 239.7 226.868C246.625 217.792 250.139 206.628 251.903 190.911C253.671 175.172 253.673 155.01 253.673 128C253.673 100.99 253.671 80.8278 251.903 65.0888C250.139 49.3722 246.625 38.2075 239.7 29.1322C239.185 28.457 238.657 27.7918 238.118 27.137C235.366 23.7973 232.302 20.7278 228.968 17.9695C228.279 17.3997 227.579 16.8427 226.868 16.2998C223.82 13.9739 220.537 12.0332 216.924 10.4141C214.687 9.41095 212.323 8.53149 209.811 7.76063C207.14 6.94069 204.301 6.24363 201.268 5.65129C195.745 4.57297 189.58 3.84171 182.608 3.34805C175.871 2.87062 168.406 2.61649 160.067 2.48122C152.807 2.36344 144.885 2.33578 136.207 2.32928Z" fill="black"/>
<path fill-rule="evenodd" clip-rule="evenodd" d="M22.8355 235.87L102.225 148.259L27.3159 118.349L217.401 9.35221C199.131 1.16363 172.909 1.16364 128 1.16364C74.032 1.16364 47.0489 1.16364 28.4257 15.375C23.5137 19.1243 19.1244 23.5136 15.375 28.4256C1.1637 47.0488 1.1637 74.0319 1.1637 128C1.1637 181.967 1.1637 208.951 15.375 227.573C17.6377 230.538 20.1324 233.311 22.8355 235.87ZM33.9963 244.314C52.4385 254.836 79.1769 254.836 128 254.836C181.967 254.836 208.951 254.836 227.573 240.625C232.486 236.876 236.876 232.486 240.625 227.573C254.836 208.951 254.836 181.967 254.836 128C254.836 74.0319 254.836 47.0488 240.625 28.4256C237.428 24.2369 233.766 20.4279 229.71 17.073L152.093 102.726L231.013 136.647L33.9963 244.314Z" fill="white"/>
<path d="M102.225 148.259L103.086 149.04L104.21 147.799L102.655 147.178L102.225 148.259ZM22.8354 235.87L22.0359 236.714L22.899 237.531L23.6977 236.651L22.8354 235.87ZM27.3158 118.349L26.7374 117.339L24.6499 118.537L26.8852 119.43L27.3158 118.349ZM217.401 9.35222L217.979 10.3612L219.961 9.22499L217.877 8.29037L217.401 9.35222ZM33.9963 244.314L33.4384 243.293L31.6102 244.292L33.4198 245.325L33.9963 244.314ZM229.71 17.073L230.452 16.1765L229.594 15.467L228.848 16.291L229.71 17.073ZM152.093 102.726L151.231 101.945L150.138 103.151L151.634 103.794L152.093 102.726ZM231.013 136.647L231.571 137.668L233.669 136.522L231.472 135.578L231.013 136.647ZM101.362 147.477L21.9732 235.088L23.6977 236.651L103.086 149.04L101.362 147.477ZM26.8852 119.43L101.793 149.338L102.655 147.178L27.7474 117.269L26.8852 119.43ZM216.822 8.3432L26.7374 117.339L27.8952 119.358L217.979 10.3612L216.822 8.3432ZM128 2.32729C150.469 2.32729 168.205 2.3273 182.608 3.34805C197.009 4.36783 207.973 6.40152 216.924 10.4141L217.877 8.29037C208.558 4.11436 197.277 2.05424 182.773 1.02663C168.269 3.50002e-06 150.439 9.39006e-09 128 9.39006e-09V2.32729ZM29.1322 16.2998C38.2075 9.37375 49.3722 5.86129 65.0888 4.09575C80.8278 2.32827 100.99 2.32729 128 2.32729V9.39006e-09C101.043 9.39006e-09 80.728 -0.00195931 64.8284 1.78412C48.9054 3.57216 37.267 7.16488 27.72 14.4501L29.1322 16.2998ZM16.2998 29.1322C19.9855 24.3015 24.3015 19.9855 29.1322 16.2998L27.72 14.4501C22.7249 18.2621 18.2621 22.7249 14.4501 27.72L16.2998 29.1322ZM2.32729 128C2.32729 100.99 2.32827 80.8278 4.09575 65.0888C5.86129 49.3722 9.37375 38.2075 16.2998 29.1322L14.4501 27.72C7.16488 37.267 3.57216 48.9054 1.78412 64.8284C-0.00195931 80.728 9.39006e-09 101.043 9.39006e-09 128H2.32729ZM16.2998 226.868C9.37375 217.792 5.86129 206.628 4.09575 190.911C2.32827 175.172 2.32729 155.01 2.32729 128H9.39006e-09C9.39006e-09 154.957 -0.00195931 175.271 1.78412 191.172C3.57216 207.094 7.16488 218.733 14.4501 228.28L16.2998 226.868ZM23.635 235.024C20.9779 232.51 18.5244 229.782 16.2998 226.868L14.4501 228.28C16.75 231.293 19.2877 234.114 22.0359 236.714L23.635 235.024ZM128 253.673C103.568 253.673 84.7376 253.672 69.7062 252.362C54.6825 251.053 43.5814 248.444 34.5727 243.304L33.4198 245.325C42.8533 250.707 54.3429 253.359 69.5046 254.68C84.6593 256.001 103.608 256 128 256V253.673ZM226.868 239.7C217.792 246.625 206.628 250.139 190.911 251.903C175.172 253.671 155.01 253.673 128 253.673V256C154.957 256 175.271 256.001 191.172 254.216C207.094 252.428 218.733 248.835 228.28 241.55L226.868 239.7ZM239.7 226.868C236.013 231.699 231.699 236.013 226.868 239.7L228.28 241.55C233.275 237.738 237.738 233.275 241.55 228.28L239.7 226.868ZM253.673 128C253.673 155.01 253.671 175.172 251.903 190.911C250.139 206.628 246.625 217.792 239.7 226.868L241.55 228.28C248.835 218.733 252.428 207.094 254.216 191.172C256.001 175.271 256 154.957 256 128H253.673ZM239.7 29.1322C246.625 38.2075 250.139 49.3722 251.903 65.0888C253.671 80.8278 253.673 100.99 253.673 128H256C256 101.043 256.001 80.728 254.216 64.8284C252.428 48.9054 248.835 37.267 241.55 27.72L239.7 29.1322ZM228.968 17.9695C232.956 21.2686 236.557 25.013 239.7 29.1322L241.55 27.72C238.299 23.4608 234.575 19.5882 230.452 16.1765L228.968 17.9695ZM152.955 103.508L230.572 17.854L228.848 16.291L151.231 101.945L152.955 103.508ZM231.472 135.578L152.553 101.657L151.634 103.794L230.554 137.716L231.472 135.578ZM34.5541 245.335L231.571 137.668L230.456 135.626L33.4384 243.293L34.5541 245.335Z" fill="white"/>
</svg>
