<svg width="256" height="256" viewBox="0 0 256 256" fill="none" xmlns="http://www.w3.org/2000/svg">
<g clip-path="url(#clip0_114_12)">
<mask id="mask0_114_12" style="mask-type:alpha" maskUnits="userSpaceOnUse" x="0" y="0" width="256" height="256">
<rect width="256" height="256" rx="68" fill="#A80505"/>
</mask>
<g mask="url(#mask0_114_12)">
<path d="M21.1662 237.582L20.3539 238.44L21.2308 239.27L22.0421 238.375L21.1662 237.582ZM218.82 7.46893L219.408 8.49397L221.421 7.33968L219.303 6.39022L218.82 7.46893ZM32.5041 246.16L31.9374 245.123L30.0802 246.138L31.9185 247.187L32.5041 246.16ZM231.324 15.3123L232.078 14.4016L231.207 13.6808L230.448 14.5179L231.324 15.3123ZM128 0.332492C130.853 0.332492 133.631 0.332492 136.337 0.334517C145.153 0.341117 153.201 0.369217 160.576 0.488869C169.047 0.626282 176.631 0.884444 183.475 1.36946C190.557 1.87096 196.821 2.61382 202.431 3.70926C205.512 4.311 208.396 5.01913 211.11 5.85207C213.662 6.63517 216.063 7.52859 218.336 8.54766L219.303 6.39022C209.836 2.14793 198.376 0.0551122 183.642 -0.988808C168.908 -2.03173 150.795 -2.03174 128 -2.03174V0.332492ZM27.5629 14.5268C32.2928 10.9171 37.5813 8.22009 43.7663 6.20722C45.8696 5.52272 48.0765 4.91734 50.4004 4.38208C54.563 3.42331 59.1008 2.68951 64.0902 2.12903C72.9981 1.12868 83.3005 0.685346 95.4236 0.488869C105.061 0.332687 115.848 0.332492 128 0.332492V-2.03174C100.615 -2.03174 79.9777 -2.03373 63.8257 -0.219295C47.6499 1.59713 35.8268 5.24687 26.1283 12.6478L27.5629 14.5268ZM14.5268 27.5629C18.271 22.6555 22.6555 18.271 27.5629 14.5268L26.1283 12.6478C21.0538 16.5202 16.5202 21.0538 12.6478 26.1283L14.5268 27.5629ZM0.332492 128C0.332492 100.561 0.333485 80.0791 2.12903 64.0902C3.92258 48.1242 7.49081 36.7822 14.5268 27.5629L12.6478 26.1283C5.24687 35.8268 1.59713 47.6499 -0.219295 63.8257C-2.03373 79.9777 -2.03174 100.615 -2.03174 128H0.332492ZM14.5268 228.437C7.49081 219.218 3.92258 207.876 2.12903 191.91C0.333485 175.921 0.332492 155.439 0.332492 128H-2.03174C-2.03174 155.385 -2.03373 176.021 -0.219295 192.174C1.59713 208.349 5.24687 220.173 12.6478 229.872L14.5268 228.437ZM21.9784 236.723C19.8738 234.731 17.8948 232.608 16.0539 230.366C15.5338 229.732 15.0247 229.089 14.5268 228.437L12.6478 229.872C14.9842 232.933 17.5622 235.798 20.3539 238.44L21.9784 236.723ZM128 255.668C115.59 255.668 104.603 255.667 94.8094 255.501C85.0158 255.334 76.4159 255.001 68.7809 254.336C53.5188 253.006 42.2414 250.355 33.0897 245.134L31.9185 247.187C41.5017 252.655 53.1738 255.348 68.5761 256.691C83.9714 258.033 103.221 258.032 128 258.032V255.668ZM228.437 241.473C219.218 248.508 207.876 252.077 191.91 253.87C183.416 254.824 173.654 255.272 162.255 255.482C152.197 255.667 140.863 255.668 128 255.668V258.032C155.385 258.032 176.021 258.033 192.174 256.219C208.349 254.403 220.173 250.753 229.872 243.352L228.437 241.473ZM241.473 228.437C240.537 229.664 239.561 230.858 238.546 232.018C235.504 235.496 232.118 238.664 228.437 241.473L229.872 243.352C234.946 239.48 239.48 234.946 243.352 229.872L241.473 228.437ZM255.668 128C255.668 155.439 255.666 175.921 253.87 191.91C252.077 207.876 248.508 219.218 241.473 228.437L243.352 229.872C250.753 220.173 254.403 208.349 256.219 192.174C258.033 176.021 258.032 155.385 258.032 128H255.668ZM241.473 27.5629C248.508 36.7822 252.077 48.1242 253.87 64.0902C255.666 80.0791 255.668 100.561 255.668 128H258.032C258.032 100.615 258.033 79.9777 256.219 63.8257C254.403 47.6499 250.753 35.8268 243.352 26.1283L241.473 27.5629ZM230.571 16.223C233.958 19.0251 237.07 22.1433 239.866 25.536C240.414 26.2012 240.95 26.8769 241.473 27.5629L243.352 26.1283C240.049 21.8015 236.267 17.8674 232.078 14.4016L230.571 16.223Z" fill="black"/>
<path d="M234.834 237.582L235.646 238.44L234.769 239.27L233.958 238.375L234.834 237.582ZM37.1799 7.46893L36.5923 8.49397L34.5791 7.33968L36.6967 6.39022L37.1799 7.46893ZM223.496 246.16L224.063 245.123L225.92 246.138L224.081 247.187L223.496 246.16ZM24.6757 15.3123L23.9221 14.4016L24.793 13.6808L25.5516 14.5179L24.6757 15.3123ZM128 0.332492C115.85 0.332492 105.063 0.332494 95.4236 0.488869C86.9531 0.626282 79.3688 0.884444 72.5251 1.36946C64.0793 1.96752 56.7972 2.90885 50.4004 4.38208C48.0765 4.91734 45.8696 5.52272 43.7663 6.20722C41.6302 6.90248 39.6008 7.67949 37.6641 8.54766L36.6967 6.39022C46.1636 2.14793 57.6239 0.0551122 72.358 -0.988808C87.0922 -2.03173 105.205 -2.03174 128 -2.03174V0.332492ZM228.437 14.5268C223.423 10.7004 217.782 7.89959 211.11 5.85207C208.396 5.01913 205.512 4.311 202.431 3.70926C199.157 3.06994 195.661 2.55044 191.91 2.12903C183.002 1.12868 172.7 0.685345 160.576 0.488869C153.201 0.369217 145.153 0.341117 136.337 0.334517C133.631 0.332492 130.853 0.332492 128 0.332492V-2.03174C155.385 -2.03174 176.022 -2.03373 192.174 -0.219295C208.35 1.59713 220.173 5.24687 229.872 12.6478L228.437 14.5268ZM241.473 27.5629C240.95 26.8769 240.414 26.2012 239.866 25.536C236.493 21.4423 232.659 17.7476 228.437 14.5268L229.872 12.6478C234.946 16.5202 239.48 21.0538 243.352 26.1283L241.473 27.5629ZM255.668 128C255.668 100.561 255.666 80.0791 253.87 64.0902C252.077 48.1242 248.508 36.7822 241.473 27.5629L243.352 26.1283C250.753 35.8268 254.403 47.6499 256.219 63.8257C258.033 79.9777 258.032 100.615 258.032 128H255.668ZM241.473 228.437C248.508 219.218 252.077 207.876 253.87 191.91C255.666 175.921 255.668 155.439 255.668 128H258.032C258.032 155.385 258.033 176.021 256.219 192.174C254.403 208.349 250.753 220.173 243.352 229.872L241.473 228.437ZM234.022 236.723C235.602 235.227 237.113 233.657 238.546 232.018C239.561 230.858 240.537 229.664 241.473 228.437L243.352 229.872C241.016 232.933 238.438 235.798 235.646 238.44L234.022 236.723ZM128 255.668C140.863 255.668 152.197 255.667 162.255 255.482C171.609 255.309 179.862 254.977 187.219 254.336C202.481 253.006 213.759 250.355 222.91 245.134L224.081 247.187C214.498 252.655 202.826 255.348 187.424 256.691C172.029 258.033 152.779 258.032 128 258.032V255.668ZM27.5629 241.473C36.7822 248.508 48.1242 252.077 64.0902 253.87C72.8472 254.853 82.952 255.299 94.8094 255.501C104.603 255.667 115.59 255.668 128 255.668V258.032C100.615 258.032 79.9787 258.033 63.8257 256.219C47.6509 254.403 35.8268 250.753 26.1283 243.352L27.5629 241.473ZM14.5268 228.437C15.0247 229.089 15.5338 229.732 16.0539 230.366C19.4466 234.498 23.3078 238.226 27.5629 241.473L26.1283 243.352C21.0538 239.48 16.5202 234.946 12.6478 229.872L14.5268 228.437ZM0.332492 128C0.332492 155.439 0.333485 175.921 2.12903 191.91C3.92258 207.876 7.49081 219.218 14.5268 228.437L12.6478 229.872C5.24687 220.173 1.59713 208.349 -0.219295 192.174C-2.03373 176.021 -2.03174 155.385 -2.03174 128H0.332492ZM14.5268 27.5629C7.49081 36.7822 3.92258 48.1242 2.12903 64.0902C0.333485 80.0791 0.332492 100.561 0.332492 128H-2.03174C-2.03174 100.615 -2.03373 79.9777 -0.219295 63.8257C1.59713 47.6499 5.24687 35.8268 12.6478 26.1283L14.5268 27.5629ZM25.4294 16.223C21.3779 19.5744 17.7202 23.3783 14.5268 27.5629L12.6478 26.1283C15.9505 21.8015 19.7335 17.8674 23.9221 14.4016L25.4294 16.223Z" fill="black"/>
<path d="M136.337 0.334517C133.631 0.332492 130.853 0.332492 128 0.332492C115.848 0.332492 105.061 0.332687 95.4236 0.488869C86.9531 0.626282 79.3688 0.884444 72.5251 1.36946C64.0793 1.96752 56.7972 2.90885 50.4004 4.38208C48.0765 4.91734 45.8696 5.52272 43.7663 6.20722C41.6302 6.90248 39.6008 7.67949 37.6641 8.54766C33.9945 10.1925 30.659 12.164 27.5629 14.5268C26.8401 15.0783 26.1291 15.6441 25.4294 16.223C21.3779 19.5744 17.7202 23.3783 14.5268 27.5629C7.49081 36.7822 3.92258 48.1242 2.12903 64.0902C0.333485 80.0791 0.332492 100.561 0.332492 128C0.332492 155.439 0.333485 175.921 2.12903 191.91C3.92258 207.876 7.49081 219.218 14.5268 228.437C15.0247 229.089 15.5338 229.732 16.0539 230.366C17.8948 232.608 19.8738 234.731 21.9784 236.723C23.7528 238.402 25.6166 239.988 27.5629 241.473C36.7822 248.508 48.1242 252.077 64.0902 253.87C72.8472 254.853 82.952 255.299 94.8094 255.501C104.603 255.667 115.59 255.668 128 255.668C140.863 255.668 152.197 255.667 162.255 255.482C173.654 255.272 183.416 254.824 191.91 253.87C207.876 252.077 219.218 248.508 228.437 241.473C230.383 239.988 232.247 238.402 234.022 236.723C235.602 235.227 237.113 233.657 238.546 232.018C239.561 230.858 240.537 229.664 241.473 228.437C248.508 219.218 252.077 207.876 253.87 191.91C255.666 175.921 255.668 155.439 255.668 128C255.668 100.561 255.666 80.0791 253.87 64.0902C252.077 48.1242 248.508 36.7822 241.473 27.5629C240.95 26.8769 240.414 26.2012 239.866 25.536C237.07 22.1433 233.958 19.0251 230.571 16.223C229.871 15.6441 229.16 15.0783 228.437 14.5268C225.341 12.164 222.005 10.1925 218.336 8.54766C216.063 7.52859 213.662 6.63517 211.11 5.85207C208.396 5.01913 205.512 4.311 202.431 3.70926C196.821 2.61382 190.557 1.87096 183.475 1.36946C176.631 0.884444 169.047 0.626282 160.576 0.488869C153.201 0.369217 145.153 0.341117 136.337 0.334517Z" fill="black"/>
<path fill-rule="evenodd" clip-rule="evenodd" d="M21.1662 237.582L101.816 148.58L25.7177 118.196L218.82 7.46882C200.26 -0.849734 173.621 -0.849731 128 -0.849731C73.1754 -0.849731 45.764 -0.849728 26.8452 13.5872C21.8552 17.396 17.3962 21.855 13.5874 26.845C-0.849545 45.7638 -0.849548 73.1752 -0.849548 128C-0.849548 182.824 -0.849545 210.236 13.5874 229.154C15.886 232.165 18.4202 234.983 21.1662 237.582ZM32.5042 246.16C51.2391 256.85 78.4019 256.85 128 256.85C182.824 256.85 210.236 256.85 229.154 242.413C234.145 238.604 238.604 234.145 242.413 229.154C256.85 210.236 256.85 182.824 256.85 128C256.85 73.1752 256.85 45.7638 242.413 26.845C239.165 22.5898 235.444 18.7203 231.324 15.3122L152.476 102.324L232.649 136.784L32.5042 246.16Z" fill="white"/>
<path d="M101.815 148.58L102.69 149.374L103.833 148.113L102.253 147.483L101.815 148.58ZM21.1662 237.582L20.3539 238.44L21.2308 239.27L22.0421 238.375L21.1662 237.582ZM25.7177 118.196L25.1301 117.17L23.0094 118.387L25.2802 119.294L25.7177 118.196ZM218.82 7.46893L219.408 8.49397L221.421 7.33968L219.303 6.39022L218.82 7.46893ZM32.5041 246.16L31.9374 245.123L30.0803 246.138L31.9185 247.187L32.5041 246.16ZM231.324 15.3123L232.078 14.4016L231.207 13.6808L230.448 14.5179L231.324 15.3123ZM152.475 102.325L151.6 101.531L150.489 102.757L152.009 103.41L152.475 102.325ZM232.649 136.784L233.215 137.822L235.346 136.658L233.115 135.698L232.649 136.784ZM100.94 147.786L20.2903 236.787L22.0421 238.375L102.69 149.374L100.94 147.786ZM25.2802 119.294L101.377 149.677L102.253 147.483L26.1561 117.099L25.2802 119.294ZM218.232 6.4439L25.1301 117.17L26.3062 119.221L219.408 8.49397L218.232 6.4439ZM128 0.332492C150.826 0.332492 168.843 0.332499 183.475 1.36946C198.105 2.40543 209.243 4.4714 218.336 8.54766L219.303 6.39022C209.836 2.14793 198.376 0.0551124 183.642 -0.988808C168.908 -2.03173 150.795 -2.03174 128 -2.03174V0.332492ZM27.5629 14.5268C36.7822 7.49081 48.1242 3.92258 64.0902 2.12903C80.0791 0.333485 100.561 0.332492 128 0.332492V-2.03174C100.615 -2.03174 79.9777 -2.03373 63.8257 -0.219295C47.6499 1.59713 35.8268 5.24687 26.1283 12.6478L27.5629 14.5268ZM14.5268 27.5629C18.271 22.6555 22.6555 18.271 27.5629 14.5268L26.1283 12.6478C21.0538 16.5202 16.5202 21.0538 12.6478 26.1283L14.5268 27.5629ZM0.332492 128C0.332492 100.561 0.333485 80.0791 2.12903 64.0902C3.92258 48.1242 7.49081 36.7822 14.5268 27.5629L12.6478 26.1283C5.24687 35.8268 1.59713 47.6499 -0.219295 63.8257C-2.03373 79.9777 -2.03174 100.615 -2.03174 128H0.332492ZM14.5268 228.437C7.49081 219.218 3.92258 207.876 2.12903 191.91C0.333485 175.921 0.332492 155.439 0.332492 128H-2.03174C-2.03174 155.385 -2.03373 176.021 -0.219295 192.174C1.59713 208.349 5.24687 220.173 12.6478 229.872L14.5268 228.437ZM21.9784 236.723C19.2792 234.169 16.7867 231.398 14.5268 228.437L12.6478 229.872C14.9842 232.933 17.5622 235.798 20.3539 238.44L21.9784 236.723ZM128 255.668C103.181 255.668 84.051 255.667 68.7809 254.336C53.5188 253.006 42.2414 250.355 33.0897 245.134L31.9185 247.187C41.5017 252.655 53.1738 255.348 68.5761 256.691C83.9714 258.033 103.221 258.032 128 258.032V255.668ZM228.437 241.473C219.218 248.508 207.876 252.077 191.91 253.87C175.921 255.666 155.439 255.668 128 255.668V258.032C155.385 258.032 176.021 258.033 192.174 256.219C208.349 254.403 220.173 250.753 229.872 243.352L228.437 241.473ZM241.473 228.437C237.728 233.345 233.345 237.728 228.437 241.473L229.872 243.352C234.946 239.48 239.48 234.946 243.352 229.872L241.473 228.437ZM255.668 128C255.668 155.439 255.666 175.921 253.87 191.91C252.077 207.876 248.508 219.218 241.473 228.437L243.352 229.872C250.753 220.173 254.403 208.349 256.219 192.174C258.033 176.021 258.032 155.385 258.032 128H255.668ZM241.473 27.5629C248.508 36.7822 252.077 48.1242 253.87 64.0902C255.666 80.0791 255.668 100.561 255.668 128H258.032C258.032 100.615 258.033 79.9777 256.219 63.8257C254.403 47.6499 250.753 35.8268 243.352 26.1283L241.473 27.5629ZM230.571 16.223C234.622 19.5744 238.28 23.3783 241.473 27.5629L243.352 26.1283C240.049 21.8015 236.267 17.8674 232.078 14.4016L230.571 16.223ZM153.351 103.119L232.2 16.1056L230.448 14.5179L151.6 101.531L153.351 103.119ZM233.115 135.698L152.943 101.239L152.009 103.41L232.182 137.871L233.115 135.698ZM33.0708 247.198L233.215 137.822L232.082 135.747L31.9374 245.123L33.0708 247.198Z" fill="white"/>
</g>
</g>
<defs>
<clipPath id="clip0_114_12">
<rect width="256" height="256" fill="white"/>
</clipPath>
</defs>
</svg>
